<svg xmlns="http://www.w3.org/2000/svg" width="520" height="52" viewBox="0 0 520 52" fill="none">
<defs></defs>

<g fill="#AAB4C6" opacity=".55">
<rect x="0" y="4" width="3" height="28"/><rect x="7" y="4" width="1" height="28"/><rect x="12" y="4" width="5" height="28"/><rect x="22" y="4" width="2" height="28"/><rect x="29" y="4" width="1" height="28"/><rect x="34" y="4" width="4" height="28"/><rect x="44" y="4" width="2" height="28"/><rect x="51" y="4" width="6" height="28"/><rect x="62" y="4" width="1" height="28"/><rect x="67" y="4" width="3" height="28"/><rect x="74" y="4" width="5" height="28"/><rect x="84" y="4" width="2" height="28"/><rect x="91" y="4" width="1" height="28"/><rect x="96" y="4" width="6" height="28"/>
</g>

<g fill="#AAB4C6" opacity=".55" transform="translate(118 0)">
<rect x="0" y="4" width="3" height="28"/><rect x="7" y="4" width="1" height="28"/><rect x="12" y="4" width="5" height="28"/><rect x="22" y="4" width="2" height="28"/><rect x="29" y="4" width="1" height="28"/><rect x="34" y="4" width="4" height="28"/><rect x="44" y="4" width="2" height="28"/><rect x="51" y="4" width="6" height="28"/><rect x="62" y="4" width="1" height="28"/><rect x="67" y="4" width="3" height="28"/><rect x="74" y="4" width="5" height="28"/><rect x="84" y="4" width="2" height="28"/><rect x="91" y="4" width="1" height="28"/><rect x="96" y="4" width="6" height="28"/>
</g>
<g fill="#AAB4C6" opacity=".55" transform="translate(236 0)">
<rect x="0" y="4" width="3" height="28"/><rect x="7" y="4" width="1" height="28"/><rect x="12" y="4" width="5" height="28"/><rect x="22" y="4" width="2" height="28"/><rect x="29" y="4" width="1" height="28"/><rect x="34" y="4" width="4" height="28"/><rect x="44" y="4" width="2" height="28"/><rect x="51" y="4" width="6" height="28"/><rect x="62" y="4" width="1" height="28"/><rect x="67" y="4" width="3" height="28"/><rect x="74" y="4" width="5" height="28"/><rect x="84" y="4" width="2" height="28"/><rect x="91" y="4" width="1" height="28"/><rect x="96" y="4" width="6" height="28"/>
</g>
<g fill="#AAB4C6" opacity=".55" transform="translate(354 0)">
<rect x="0" y="4" width="3" height="28"/><rect x="7" y="4" width="1" height="28"/><rect x="12" y="4" width="5" height="28"/><rect x="22" y="4" width="2" height="28"/><rect x="29" y="4" width="1" height="28"/><rect x="34" y="4" width="4" height="28"/><rect x="44" y="4" width="2" height="28"/><rect x="51" y="4" width="6" height="28"/><rect x="62" y="4" width="1" height="28"/><rect x="67" y="4" width="3" height="28"/><rect x="74" y="4" width="5" height="28"/><rect x="84" y="4" width="2" height="28"/><rect x="91" y="4" width="1" height="28"/><rect x="96" y="4" width="6" height="28"/>
</g>

<text x="260" y="48" text-anchor="middle" fill="#66738A" font-size="9" font-family="monospace" letter-spacing="3">RPX 8273 1029 4491</text>

</svg>